<svg width="12" height="9" viewBox="0 0 20 34" fill="#A09B8C" xmlns="http://www.w3.org/2000/svg">
  <path fill-rule="evenodd" clip-rule="evenodd" d="M5.20039 29.0002L10.0004 33.8002L14.8004 29.0002L10.0004 24.2002L5.20039 29.0002ZM10.0004 0.200195C4.48039 0.200195 0.400391 5.0002 0.400391 7.4002L5.20039 9.8002C5.32469 8.56948 5.87032 7.41947 6.74499 6.5448C7.61967 5.67013 8.76967 5.12449 10.0004 5.0002C10.6464 4.93723 11.2982 5.01814 11.9092 5.2371C12.5202 5.45606 13.0751 5.80762 13.534 6.26655C13.993 6.72548 14.3446 7.28038 14.5635 7.89136C14.7825 8.50234 14.8634 9.15423 14.8004 9.8002C14.8004 13.1602 7.60039 13.4002 7.60039 19.4002H12.4004C12.4004 17.2402 19.6004 14.6002 19.6004 9.8002C19.6004 2.8402 15.7604 0.200195 10.0004 0.200195Z" fill="#A09B8C"/>
</svg>
